<svg xmlns="http://www.w3.org/2000/svg" width="285" height="298" viewBox="0 0 285 298"><defs><clipPath id="dsxaa"><path fill="#fff" d="M0 298V0h285v298zm3-155.123C3 217.895 61.895 279.12 135.85 282.6l7.12 12.398 7.147-12.447C223.618 278.584 282 217.567 282 142.877 282 65.625 219.544 3 142.5 3S3 65.625 3 142.877z"/></clipPath></defs><g><g><path fill="#394b50" d="M142.5 3C219.544 3 282 65.625 282 142.877c0 74.69-58.382 135.707-131.883 139.673l-7.147 12.447-7.12-12.398C61.896 279.119 3 217.895 3 142.877 3 65.625 65.456 3 142.5 3z"/><path fill="none" stroke="#fff" stroke-linecap="round" stroke-linejoin="round" stroke-miterlimit="20" stroke-width="6" d="M142.5 3C219.544 3 282 65.625 282 142.877c0 74.69-58.382 135.707-131.883 139.673l-7.147 12.447-7.12-12.398C61.896 279.119 3 217.895 3 142.877 3 65.625 65.456 3 142.5 3z" clip-path="url(&quot;#dsxaa&quot;)"/></g></g></svg>